<?xml version="1.0" standalone="no"?><!DOCTYPE svg PUBLIC "-//W3C//DTD SVG 1.1//EN" "http://www.w3.org/Graphics/SVG/1.1/DTD/svg11.dtd"><svg t="1715048915833" class="icon" viewBox="0 0 1024 1024" version="1.1" xmlns="http://www.w3.org/2000/svg" p-id="2375" xmlns:xlink="http://www.w3.org/1999/xlink" width="200" height="200"><path d="M355.76 85.68A175.808 175.808 0 0 1 496 16c67.616 0 126.368 38.208 155.84 94.192a31.712 31.712 0 0 0 47.872 9.744C731.712 94.736 772.144 80 816 80c105.968 0 192 86.032 192 192s-86.032 192-192 192c-93.36 0-171.232-66.768-188.448-155.12a175.632 175.632 0 0 1-140.144 58.912C459.44 469.328 366.368 544 256 544 123.536 544 16 436.464 16 304S123.536 64 256 64c35.584 0 69.376 7.76 99.76 21.68z" fill="#CBE9EA" p-id="2376"></path><path d="M16 400.8A128.864 128.864 0 0 1 144.8 272h734.4A128.864 128.864 0 0 1 1008 400.8v305.6a128.864 128.864 0 0 1-128.8 128.8h-161.6L809.6 1008 568.8 835.2H144.8A128.864 128.864 0 0 1 16 706.4v-305.6z" fill="#FFD140" p-id="2377"></path><path d="M144.8 835.2c-21.408 0 459.952-30.704 678.288-44.56A112 112 0 0 0 928 678.864V412.064a144 144 0 0 0-42.688-102.32L847.2 272C918.288 272 1008 329.712 1008 400.8v305.6a128.864 128.864 0 0 1-128.8 128.8h-161.6L809.6 1008 568.8 835.2H144.8z" fill="#D9B236" p-id="2378"></path><path d="M288 552m-56 0a56 56 0 1 0 112 0 56 56 0 1 0-112 0Z" fill="#FFFFFF" p-id="2379"></path><path d="M288 552m-56 0a56 56 0 1 0 112 0 56 56 0 1 0-112 0Z" fill="#FFFFFF" p-id="2380"></path><path d="M512 552m-56 0a56 56 0 1 0 112 0 56 56 0 1 0-112 0Z" fill="#FFFFFF" p-id="2381"></path><path d="M736 552m-56 0a56 56 0 1 0 112 0 56 56 0 1 0-112 0Z" fill="#FFFFFF" p-id="2382"></path><path d="M585.616 225.312A120.064 120.064 0 0 1 472 384a119.408 119.408 0 0 1-74.272-25.776A144.048 144.048 0 0 1 272 432c-79.472 0-144-64.528-144-144 0-26.224 7.024-50.832 19.296-72.016" fill="#CBE9EA" p-id="2383"></path><path d="M585.616 225.312c3.264-12.4 6.384 25.152 6.384 38.688 0 66.224-53.776 120-120 120a119.408 119.408 0 0 1-74.272-25.776A144.048 144.048 0 0 1 272 432c-79.472 0-144-64.528-144-144 0-26.224 17.84-96.464 19.296-72.016 10.784 179.808 167.712 183.392 250.432 94.992 67.824 66.656 166.24-3.392 187.888-85.664z" fill="#ADC6C7" p-id="2384"></path></svg>